<svg id="Ebene_1" data-name="Ebene 1" xmlns="http://www.w3.org/2000/svg" xmlns:xlink="http://www.w3.org/1999/xlink" viewBox="0 0 21 20"><defs><style>.cls-1{fill:none;}.cls-2{fill:#d8dde4;}.cls-3{clip-path:url(#clip-path);}.cls-4{fill:#f49600;}</style><clipPath id="clip-path"><path class="cls-1" d="M10.5,0A1.23,1.23,0,0,0,9.43.78L7.25,5.17A1.94,1.94,0,0,1,6,6.09l-4.87.7a1.21,1.21,0,0,0-1.07.78A1.2,1.2,0,0,0,.46,8.82L4,12.24a2,2,0,0,1,.49,1.48l-.84,4.84A1.23,1.23,0,0,0,4,19.81a1.25,1.25,0,0,0,1.32,0l4.36-2.28a1.93,1.93,0,0,1,1.56,0l4.36,2.28a1.48,1.48,0,0,0,.71.19,1,1,0,0,0,.61-.19,1.23,1.23,0,0,0,.41-1.25l-.83-4.84A2,2,0,0,1,17,12.24l3.52-3.42A1.38,1.38,0,0,0,21,7.9V7.84A.86.86,0,0,0,21,7.57a1.21,1.21,0,0,0-1.07-.78L15,6.09a2,2,0,0,1-1.26-.92L11.57.78A1.21,1.21,0,0,0,10.5,0Z"/></clipPath></defs><path class="cls-2" d="M20.54,8.82A1.2,1.2,0,0,0,21,7.57a1.21,1.21,0,0,0-1.07-.78L15,6.09a2,2,0,0,1-1.26-.92L11.57.78A1.21,1.21,0,0,0,10.5,0,1.21,1.21,0,0,0,9.43.78L7.25,5.17A2,2,0,0,1,6,6.09l-4.87.7a1.21,1.21,0,0,0-1.07.78A1.2,1.2,0,0,0,.46,8.82L4,12.24a2,2,0,0,1,.48,1.48l-.83,4.83A1.24,1.24,0,0,0,4,19.81a1.25,1.25,0,0,0,1.32,0l4.36-2.28a1.93,1.93,0,0,1,1.56,0l4.36,2.28a1.48,1.48,0,0,0,.71.19,1,1,0,0,0,.61-.19,1.24,1.24,0,0,0,.41-1.26l-.83-4.83A2,2,0,0,1,17,12.24Z"/><g class="cls-3"><path class="cls-4" d="M10.5,0h0A1.21,1.21,0,0,0,9.43.78L7.25,5.17A2,2,0,0,1,6,6.09l-4.87.7a1.21,1.21,0,0,0-1.07.78A1.2,1.2,0,0,0,.46,8.82L4,12.24a2,2,0,0,1,.48,1.48l-.83,4.84A1.23,1.23,0,0,0,4,19.81a1.25,1.25,0,0,0,1.32,0l4.36-2.28a1.7,1.7,0,0,1,.78-.16V0Z"/></g></svg>