<svg id="Ebene_1" data-name="Ebene 1" xmlns="http://www.w3.org/2000/svg" viewBox="0 0 21 20"><defs><style>.cls-1{fill:#d8dde4;}.cls-2{fill:#f49600;}</style></defs><path class="cls-1" d="M20.54,8.82A1.2,1.2,0,0,0,21,7.57a1.21,1.21,0,0,0-1.07-.78L15,6.09a2,2,0,0,1-1.26-.92L11.57.78A1.21,1.21,0,0,0,10.5,0,1.21,1.21,0,0,0,9.43.78L7.25,5.17A2,2,0,0,1,6,6.09l-4.87.7a1.21,1.21,0,0,0-1.07.78A1.2,1.2,0,0,0,.46,8.82L4,12.24a2,2,0,0,1,.48,1.48l-.83,4.83A1.24,1.24,0,0,0,4,19.81a1.25,1.25,0,0,0,1.32,0l4.36-2.28a1.93,1.93,0,0,1,1.56,0l4.36,2.28a1.48,1.48,0,0,0,.71.19,1,1,0,0,0,.61-.19,1.24,1.24,0,0,0,.41-1.26l-.83-4.83A2,2,0,0,1,17,12.24Z"/><path class="cls-2" d="M1.11,6.79A1.24,1.24,0,0,0,0,7.57,1.23,1.23,0,0,0,.45,8.82L4,12.24a2,2,0,0,1,.49,1.48l-.84,4.83A1.24,1.24,0,0,0,4,19.81a1.2,1.2,0,0,0,1.21,0V6.19Z"/></svg>