<svg id="Ebene_1" data-name="Ebene 1" xmlns="http://www.w3.org/2000/svg" xmlns:xlink="http://www.w3.org/1999/xlink" viewBox="0 0 30 30"><defs><style>.cls-1{fill:#fff;}.cls-2{fill:url(#Unbenannter_Verlauf_2);}.cls-3{clip-path:url(#clip-path);}</style><linearGradient id="Unbenannter_Verlauf_2" x1="-95.7" y1="69.78" x2="-94.69" y2="69.78" gradientTransform="matrix(30, 0, 0, -30, 2871, 2108)" gradientUnits="userSpaceOnUse"><stop offset="0" stop-color="#31bbda"/><stop offset="0.09" stop-color="#31bbda"/><stop offset="0.8" stop-color="#004590"/><stop offset="1" stop-color="#004590"/></linearGradient><clipPath id="clip-path"><path class="cls-1" d="M7.8,20.11a.8.8,0,0,0,.09.3.67.67,0,0,0,.58.34H21.92a.67.67,0,0,0,.58-.34.66.66,0,0,0,.09-.33.63.63,0,0,0-.09-.33L15.77,8.1a.64.64,0,0,0-.57-.34.67.67,0,0,0-.58.34L7.89,19.75a.75.75,0,0,0-.09.3Z"/></clipPath></defs><title>Zeichenfläche 2</title><rect class="cls-2" y="-1" width="30.2" height="31"/><path class="cls-1" d="M7.8,20.11a.8.8,0,0,0,.09.3.67.67,0,0,0,.58.34H21.92a.67.67,0,0,0,.58-.34.66.66,0,0,0,.09-.33.63.63,0,0,0-.09-.33L15.77,8.1a.64.64,0,0,0-.57-.34.67.67,0,0,0-.58.34L7.89,19.75a.75.75,0,0,0-.09.3Z"/><g class="cls-3"><rect class="cls-1" x="7.45" y="7.36" width="15.49" height="13.79" transform="translate(-0.77 0.87) rotate(-3.2)"/></g></svg>