<?xml version="1.0" standalone="no"?>
<!DOCTYPE svg PUBLIC "-//W3C//DTD SVG 20010904//EN"
 "http://www.w3.org/TR/2001/REC-SVG-20010904/DTD/svg10.dtd">
<svg version="1.0" xmlns="http://www.w3.org/2000/svg"
 width="256.000000pt" height="256.000000pt" viewBox="0 0 256.000000 256.000000"
 preserveAspectRatio="xMidYMid meet">
<metadata>
Created by potrace 1.11, written by Peter Selinger 2001-2013
</metadata>
<g transform="translate(0.000000,256.000000) scale(0.100000,-0.100000)"
fill="#000000" stroke="none">
<path d="M2109 1744 c-11 -14 -14 -86 -14 -409 0 -259 3 -391 10 -389 5 2 43
5 84 8 40 3 76 8 79 10 3 3 11 1 19 -5 7 -6 13 -8 13 -3 0 5 21 10 46 11 90 3
91 4 91 84 0 39 -2 67 -6 63 -3 -5 -35 -9 -71 -9 -36 0 -80 -3 -97 -6 -26 -6
-33 -4 -34 10 -6 96 -2 304 6 309 5 3 26 7 45 8 61 3 143 14 149 20 3 3 6 32
7 64 l0 59 -55 -4 c-31 -2 -56 -4 -56 -5 0 -5 -95 -5 -96 -1 -1 3 -2 49 -2
101 l-2 95 -42 0 c-24 0 -43 -4 -43 -10 0 -5 -4 -4 -9 3 -6 10 -11 9 -22 -4z"/>
<path d="M1805 1722 c-2 -2 -32 -6 -67 -8 -118 -8 -183 -12 -183 -14 0 -1 -25
-3 -55 -5 -30 -3 -84 -7 -120 -10 -123 -11 -165 -15 -235 -19 -38 -3 -70 -5
-70 -6 0 -1 -29 -4 -65 -6 -36 -3 -67 -10 -70 -15 -4 -5 -6 -35 -6 -66 1 -54
2 -56 29 -57 15 -1 27 1 27 4 0 3 25 6 55 6 40 1 55 -2 56 -12 3 -47 2 -72 -4
-87 -3 -9 -3 -17 1 -17 8 0 7 -143 -2 -165 -3 -8 -2 -15 3 -15 10 0 8 -40 -2
-57 -5 -7 -5 -13 0 -13 4 0 8 -18 8 -40 0 -22 -4 -40 -10 -40 -7 0 -7 -3 0 -8
6 -4 10 -20 10 -37 0 -16 -4 -33 -10 -37 -7 -5 -7 -8 0 -8 6 0 9 -25 7 -64 -3
-57 -1 -64 18 -69 11 -3 20 -2 20 2 0 3 18 6 41 6 27 0 43 5 48 15 4 8 6 157
5 330 0 173 3 320 7 326 8 10 48 15 143 18 l50 1 0 -334 1 -334 23 -2 c13 -1
25 1 27 5 2 3 18 5 35 4 20 -1 33 4 38 14 4 10 7 162 6 340 0 177 2 322 5 323
3 0 24 3 46 5 21 3 55 6 75 7 19 2 40 6 47 10 6 4 15 2 20 -5 4 -7 9 -155 9
-328 1 -173 2 -322 3 -332 1 -12 8 -15 29 -12 15 3 43 6 62 7 l35 2 -1 53 c0
28 4 52 9 52 4 0 5 5 1 11 -10 17 -12 109 -1 109 4 0 5 5 1 11 -10 17 -12 109
-1 109 4 0 5 5 1 12 -11 18 -13 68 -2 68 5 0 6 5 2 11 -10 17 -12 109 -1 109
4 0 5 5 1 11 -10 17 -12 109 -1 109 4 0 5 5 1 12 -10 16 -12 101 -2 114 5 7
-8 11 -42 10 -28 0 -52 -2 -55 -4z"/>
<path d="M425 1595 c-62 -20 -97 -37 -140 -69 -41 -29 -105 -107 -105 -126 0
-5 -5 -10 -12 -10 -6 0 -9 -2 -6 -6 3 -3 -3 -27 -13 -53 -10 -27 -15 -51 -12
-55 4 -3 2 -6 -3 -6 -13 0 -16 -88 -4 -95 6 -3 10 -12 10 -18 0 -7 -4 -6 -11
3 -9 12 -10 11 -4 -5 4 -11 14 -42 22 -69 19 -64 55 -121 108 -172 42 -40 121
-85 159 -91 11 -2 24 -7 30 -11 23 -17 166 -2 194 20 6 6 12 7 12 3 0 -15 97
50 137 91 24 24 54 67 69 95 28 55 57 186 43 194 -4 3 -6 11 -3 19 4 10 -6 67
-20 111 -11 36 -38 85 -46 85 -6 0 -10 6 -10 13 0 14 -57 70 -105 103 -27 19
-87 43 -118 48 -7 1 -18 6 -26 10 -10 7 -12 6 -6 -4 6 -9 4 -11 -6 -4 -19 11
-60 12 -83 1 -13 -6 -16 -6 -12 2 4 6 6 11 4 10 -2 -1 -21 -7 -43 -14z m190
-144 c53 -24 109 -83 134 -142 15 -37 19 -64 15 -116 -5 -88 -6 -93 -16 -93
-4 0 -8 -5 -8 -11 0 -18 -54 -89 -67 -89 -7 0 -13 -5 -13 -11 0 -10 -57 -38
-94 -45 -154 -30 -291 79 -304 242 -7 87 19 155 81 217 27 26 53 45 58 42 5
-4 9 -2 9 3 0 13 87 29 130 24 19 -2 53 -12 75 -21z"/>
</g>
</svg>
